<?xml version="1.0" encoding="utf-8"?>
<!-- Generator: Adobe Illustrator 21.0.0, SVG Export Plug-In . SVG Version: 6.00 Build 0)  -->
<svg version="1.1" id="стрелочка" xmlns="http://www.w3.org/2000/svg" xmlns:xlink="http://www.w3.org/1999/xlink" x="0px"
	 y="0px" viewBox="0 0 56 56" style="enable-background:new 0 0 56 56;" xml:space="preserve">
<style type="text/css">
	.st0{display:none;fill:#05477C;}
	.st1{fill:#24292E;}
</style>
<circle class="st0" cx="28" cy="28" r="28"/>
<g id="Стрелочка">
	<path class="st1" d="M39.5,12.3L18.7,31.6c-2,1.9-5.3,1.9-7.3,0l0,0c-2-1.9-2-4.9,0-6.8L32.2,5.5c2-1.9,5.3-1.9,7.3,0l0,0
		C41.5,7.4,41.5,10.4,39.5,12.3z"/>
	<path class="st1" d="M18.7,24.7l20.8,19.3c2,1.9,2,4.9,0,6.8l0,0c-2,1.9-5.3,1.9-7.3,0L11.4,31.5c-2-1.9-2-4.9,0-6.8l0,0
		C13.4,22.9,16.7,22.9,18.7,24.7z"/>
</g>
</svg>
