<?xml version="1.0" encoding="utf-8"?>
<!-- Generator: Adobe Illustrator 21.0.0, SVG Export Plug-In . SVG Version: 6.00 Build 0)  -->
<svg version="1.1" id="стрелочка" xmlns="http://www.w3.org/2000/svg" xmlns:xlink="http://www.w3.org/1999/xlink" x="0px"
	 y="0px" viewBox="0 0 56 56" style="enable-background:new 0 0 56 56;" xml:space="preserve">
<style type="text/css">
	.st0{display:none;fill:#05477C;}
	.st1{fill:#1D1F25;}
</style>
<circle class="st0" cx="28" cy="28" r="28"/>
<g id="Стрелочка">
	<path class="st1" d="M16.4,44.1l20.8-19.3c2-1.9,5.3-1.9,7.3,0l0,0c2,1.9,2,4.9,0,6.8L23.7,50.8c-2,1.9-5.3,1.9-7.3,0l0,0
		C14.3,49,14.3,45.9,16.4,44.1z"/>
	<path class="st1" d="M37.2,31.6L16.4,12.3c-2-1.9-2-4.9,0-6.8l0,0c2-1.9,5.3-1.9,7.3,0l20.8,19.3c2,1.9,2,4.9,0,6.8l0,0
		C42.5,33.5,39.2,33.5,37.2,31.6z"/>
</g>
</svg>
